<?xml version="1.0" encoding="utf-8"?>
<!-- Generator: Adobe Illustrator 16.0.0, SVG Export Plug-In . SVG Version: 6.00 Build 0)  -->
<!DOCTYPE svg PUBLIC "-//W3C//DTD SVG 1.1//EN" "http://www.w3.org/Graphics/SVG/1.1/DTD/svg11.dtd">
<svg version="1.1" id="Layer_1" xmlns="http://www.w3.org/2000/svg" xmlns:xlink="http://www.w3.org/1999/xlink" x="0px" y="0px"
	 width="36.25px" height="25px" viewBox="0 0 36.25 25" enable-background="new 0 0 36.25 25" xml:space="preserve">
<g>
	<path fill="#FFFFFF" d="M36.218,22.856c0,1.184-0.959,2.144-2.143,2.144H2.11c-1.184,0-2.143-0.96-2.143-2.144V2.143
		C-0.032,0.959,0.927,0,2.11,0h31.965c1.184,0,2.143,0.959,2.143,2.143V22.856L36.218,22.856z"/>
	<path fill="#F7A01E" d="M8.013,12.644L7.162,8.561C7.017,7.997,6.593,7.83,6.063,7.808H2.161L2.127,7.994
		C5.167,8.731,7.177,10.509,8.013,12.644z"/>
	<g>
		<polygon fill="#0A9CBF" points="17.056,7.89 14.534,7.89 12.96,17.131 15.477,17.131 		"/>
		<path fill="#0A9CBF" d="M9.55,17.122l3.966-9.226h-2.669L8.38,14.199l-0.264-0.951c-0.482-1.146-1.865-2.793-3.488-3.83
			l2.256,7.707L9.55,17.122z"/>
		<path fill="#0A9CBF" d="M24.247,14.11c0.01-1.05-0.664-1.85-2.115-2.511c-0.883-0.427-1.42-0.711-1.414-1.145
			c0-0.383,0.455-0.794,1.441-0.794c0.826-0.013,1.422,0.168,1.887,0.354l0.227,0.104l0.342-2.002
			c-0.5-0.188-1.281-0.387-2.258-0.387c-2.488,0-4.242,1.253-4.258,3.05c-0.016,1.328,1.253,2.068,2.209,2.511
			c0.98,0.451,1.309,0.74,1.303,1.146c-0.006,0.618-0.781,0.9-1.506,0.9c-1.01,0-1.544-0.139-2.373-0.484l-0.322-0.148l-0.354,2.071
			c0.588,0.257,1.676,0.481,2.805,0.491C22.509,17.268,24.229,16.031,24.247,14.11z"/>
		<path fill="#0A9CBF" d="M27.243,15.746c0.287,0,2.859,0.004,3.227,0.004c0.074,0.321,0.307,1.385,0.307,1.385h2.336l-2.039-9.235
			h-1.945c-0.604,0-1.053,0.165-1.318,0.766l-3.742,8.47h2.646C26.714,17.135,27.146,15.996,27.243,15.746z M28.97,11.271
			c-0.012,0.025,0.209-0.534,0.336-0.882l0.17,0.797c0,0,0.48,2.207,0.582,2.67h-2.09C28.175,13.323,28.97,11.271,28.97,11.271z"/>
		<path fill="#0A9CBF" d="M34.075,0H2.11C0.927,0-0.032,0.959-0.032,2.143v2.224h36.25V2.143C36.218,0.959,35.259,0,34.075,0z"/>
	</g>
	<path fill="#F7A01E" d="M34.075,25H2.11c-1.184,0-2.143-0.96-2.143-2.144v-2.224h36.25v2.224C36.218,24.04,35.259,25,34.075,25z"/>
	<path opacity="0.15" fill="#202121" enable-background="new    " d="M1.491,22.856V2.143C1.491,0.959,2.45,0,3.634,0H2.11
		C0.927,0-0.032,0.959-0.032,2.143v20.714C-0.032,24.04,0.927,25,2.11,25h1.523C2.45,25,1.491,24.04,1.491,22.856z"/>
</g>
</svg>
