<?xml version="1.0" encoding="utf-8"?>
<!-- Generator: Adobe Illustrator 16.0.0, SVG Export Plug-In . SVG Version: 6.00 Build 0)  -->
<!DOCTYPE svg PUBLIC "-//W3C//DTD SVG 1.1//EN" "http://www.w3.org/Graphics/SVG/1.1/DTD/svg11.dtd">
<svg version="1.1" id="Layer_1" xmlns="http://www.w3.org/2000/svg" xmlns:xlink="http://www.w3.org/1999/xlink" x="0px" y="0px"
	 width="36.25px" height="25px" viewBox="0 0 36.25 25" enable-background="new 0 0 36.25 25" xml:space="preserve">
<g>
	<path fill="#2298D5" d="M36.25,22.856c0,1.184-0.959,2.144-2.143,2.144H2.143C0.959,25,0,24.04,0,22.856V2.143
		C0,0.959,0.959,0,2.143,0h31.965c1.184,0,2.143,0.959,2.143,2.143V22.856L36.25,22.856z"/>
	<path opacity="0.15" fill="#202121" enable-background="new    " d="M1.523,22.856V2.143C1.523,0.959,2.483,0,3.667,0H2.143
		C0.959,0,0,0.959,0,2.143v20.714C0,24.04,0.959,25,2.143,25h1.524C2.483,25,1.523,24.04,1.523,22.856z"/>
	<path fill="#E91E25" d="M23.695,10.983c0-1.277,0.588-2.416,1.508-3.162c-0.697-0.566-1.59-0.906-2.559-0.906
		c-2.248,0-4.068,1.821-4.068,4.067c0,2.247,1.82,4.068,4.068,4.068c0.971,0,1.861-0.34,2.559-0.907
		C24.283,13.398,23.695,12.26,23.695,10.983z"/>
	<path fill="#F7A01E" d="M27.764,6.915c-0.971,0-1.861,0.34-2.561,0.907c0.922,0.745,1.51,1.885,1.51,3.161s-0.588,2.415-1.51,3.16
		c0.699,0.567,1.59,0.907,2.561,0.907c2.246,0,4.068-1.821,4.068-4.067C31.832,8.736,30.01,6.915,27.764,6.915z"/>
	<path fill="#F26122" d="M26.713,10.983c0-1.277-0.59-2.416-1.51-3.162c-0.92,0.746-1.508,1.885-1.508,3.162
		c0,1.276,0.588,2.415,1.508,3.16C26.123,13.398,26.713,12.26,26.713,10.983z"/>
	<path fill="#FFC818" d="M11.742,12.869c0,0.285-0.232,0.517-0.518,0.517h-6.42c-0.286,0-0.518-0.231-0.518-0.517V7.865
		c0-0.286,0.231-0.518,0.518-0.518h6.42c0.286,0,0.518,0.231,0.518,0.518V12.869L11.742,12.869z"/>
	<g>
		<path fill="#364A5E" d="M11.813,17.816H4.287c-0.327,0-0.591-0.264-0.591-0.59c0-0.327,0.265-0.592,0.591-0.592h7.526
			c0.326,0,0.591,0.265,0.591,0.592C12.404,17.553,12.139,17.816,11.813,17.816z"/>
		<path fill="#364A5E" d="M11.813,20.282H4.287c-0.327,0-0.591-0.265-0.591-0.591c0-0.327,0.265-0.592,0.591-0.592h7.526
			c0.326,0,0.591,0.265,0.591,0.592C12.404,20.018,12.139,20.282,11.813,20.282z"/>
	</g>
	<g>
		<polygon fill="#FAA51F" points="6.294,13.386 7.476,13.386 7.476,12.795 7.476,7.938 7.476,7.348 6.294,7.348 6.294,7.938 
			6.294,8.77 4.877,8.77 4.287,8.77 4.287,9.951 4.877,9.951 6.294,9.951 6.294,10.782 4.877,10.782 4.287,10.782 4.287,11.965 
			4.877,11.965 6.294,11.965 6.294,12.795 		"/>
		<path fill="#FAA51F" d="M11.151,9.951h0.591V8.77h-0.591h-1.127V7.938V7.348H8.842v0.591v3.435c0,0.327,0.265,0.592,0.591,0.592
			h1.718h0.591v-1.183h-0.591h-1.127V9.951H11.151z"/>
	</g>
	<path opacity="0.15" fill="#202121" enable-background="new    " d="M5.375,12.869V7.865c0-0.286,0.231-0.518,0.517-0.518H4.804
		c-0.286,0-0.518,0.231-0.518,0.518v5.004c0,0.285,0.231,0.517,0.518,0.517h1.088C5.607,13.386,5.375,13.154,5.375,12.869z"/>
</g>
</svg>
