<?xml version="1.0" encoding="utf-8"?>
<!-- Generator: Adobe Illustrator 16.0.0, SVG Export Plug-In . SVG Version: 6.00 Build 0)  -->
<!DOCTYPE svg PUBLIC "-//W3C//DTD SVG 1.1//EN" "http://www.w3.org/Graphics/SVG/1.1/DTD/svg11.dtd">
<svg version="1.1" id="Layer_1" xmlns="http://www.w3.org/2000/svg" xmlns:xlink="http://www.w3.org/1999/xlink" x="0px" y="0px"
	 width="20px" height="20px" viewBox="0 0 20 20" enable-background="new 0 0 20 20" xml:space="preserve">
<path fill="#62C089" d="M14.42,6.827c0.306,0.305,0.306,0.8,0,1.104l-5.241,5.241c-0.305,0.306-0.799,0.306-1.104,0L5.58,10.678
	c-0.305-0.305-0.305-0.799,0-1.104s0.8-0.305,1.104,0l1.943,1.942l4.688-4.688C13.621,6.522,14.115,6.522,14.42,6.827z M20,10
	c0,5.527-4.473,10-10,10S0,15.527,0,10S4.473,0,10,0C15.527,0,20,4.473,20,10z M18.438,10c0-4.664-3.774-8.438-8.438-8.438
	c-4.664,0-8.438,3.774-8.438,8.438c0,4.664,3.774,8.438,8.438,8.438C14.664,18.438,18.438,14.663,18.438,10z"/>
</svg>
