<?xml version="1.0" encoding="utf-8"?>
<!-- Generator: Adobe Illustrator 16.0.0, SVG Export Plug-In . SVG Version: 6.00 Build 0)  -->
<!DOCTYPE svg PUBLIC "-//W3C//DTD SVG 1.1//EN" "http://www.w3.org/Graphics/SVG/1.1/DTD/svg11.dtd">
<svg version="1.1" id="Layer_1" xmlns="http://www.w3.org/2000/svg" xmlns:xlink="http://www.w3.org/1999/xlink" x="0px" y="0px"
	 width="36.25px" height="25px" viewBox="0 0 36.25 25" enable-background="new 0 0 36.25 25" xml:space="preserve">
<g>
	<path fill="#3C6FB6" d="M36.25,22.856c0,1.184-0.959,2.144-2.143,2.144H2.143C0.959,25,0,24.04,0,22.856V2.143
		C0,0.959,0.959,0,2.143,0h31.965c1.184,0,2.143,0.959,2.143,2.143V22.856L36.25,22.856z"/>
	<path opacity="0.15" fill="#202121" enable-background="new    " d="M1.523,22.856V2.143C1.523,0.959,2.483,0,3.667,0H2.143
		C0.959,0,0,0.959,0,2.143v20.714C0,24.04,0.959,25,2.143,25h1.524C2.483,25,1.523,24.04,1.523,22.856z"/>
	<g>
		<polygon fill="#FFFFFF" points="5.281,10.004 6.364,10.004 5.823,8.625 		"/>
		<polygon fill="#FFFFFF" points="11.041,14.631 11.041,15.271 12.863,15.271 12.863,15.961 11.041,15.961 11.041,16.699 
			13.06,16.699 13.995,15.665 13.109,14.631 		"/>
		<polygon fill="#FFFFFF" points="25.27,8.625 24.678,10.004 25.811,10.004 		"/>
		<polygon fill="#FFFFFF" points="16.309,17.093 16.309,14.287 15.029,15.665 		"/>
		<path fill="#FFFFFF" d="M18.721,15.074c-0.049-0.295-0.246-0.443-0.542-0.443h-1.034v0.887h1.083
			C18.524,15.518,18.721,15.369,18.721,15.074z"/>
		<path fill="#FFFFFF" d="M22.168,15.419c0.098-0.05,0.147-0.196,0.147-0.345c0.049-0.196-0.05-0.295-0.147-0.344
			c-0.099-0.05-0.246-0.05-0.395-0.05h-0.984v0.788h0.984C21.922,15.469,22.068,15.469,22.168,15.419z"/>
		<path fill="#FFFFFF" d="M29.256,7.345v0.591l-0.295-0.591h-2.313v0.591l-0.296-0.591h-3.15c-0.541,0-0.984,0.099-1.379,0.296
			V7.345h-2.215v0.05v0.246c-0.246-0.196-0.541-0.296-0.935-0.296h-7.926l-0.542,1.231L9.663,7.345H7.891H7.152v0.591L6.906,7.345
			H6.856H4.74L3.755,9.659L2.623,12.17l-0.021,0.049h0.021h2.511h0.032l0.018-0.049l0.296-0.738h0.64l0.295,0.787h2.855V12.17
			v-0.542l0.246,0.591h1.428l0.246-0.591v0.542v0.049h1.133h5.662h0.049v-1.279h0.099c0.098,0,0.098,0,0.098,0.147v1.083h3.544
			v-0.296c0.296,0.148,0.738,0.296,1.329,0.296h1.478l0.295-0.787h0.689l0.295,0.787h2.855v-0.492v-0.246l0.443,0.738h0.098h0.05
			h2.167V7.345H29.256L29.256,7.345L29.256,7.345z M12.567,11.48h-0.493H11.78v-0.295V8.773L11.73,8.886V8.885l-1.146,2.596h-0.036
			h-0.263H9.859L8.678,8.773v2.707H7.004L6.66,10.742H4.986L4.641,11.48H3.775l1.457-3.446h1.23l1.379,3.299V8.034h0.295h1.009
			l0.023,0.05H9.17l0.621,1.352l0.446,1.013l0.016-0.051l0.984-2.363h1.33V11.48L12.567,11.48L12.567,11.48z M15.964,8.773h-1.92
			v0.64h1.871v0.689h-1.871v0.689h1.92v0.738h-2.757V8.034h2.757V8.773L15.964,8.773z M19.477,10.043
			c0,0.001,0.002,0.001,0.004,0.003c0.019,0.02,0.034,0.039,0.048,0.058c0.095,0.124,0.171,0.308,0.175,0.577
			c0,0.005,0,0.01,0,0.015c0,0.002,0.001,0.005,0.001,0.007s0,0.003,0,0.005c0.001,0.027,0.002,0.055,0.002,0.085v0.688h-0.739
			v-0.394c0-0.197,0-0.492-0.147-0.689c-0.047-0.046-0.094-0.077-0.145-0.099c-0.074-0.048-0.214-0.049-0.446-0.049h-0.886v1.23
			h-0.837V8.034h1.871c0.443,0,0.738,0,0.984,0.148c0.241,0.145,0.387,0.385,0.393,0.766c-0.012,0.523-0.348,0.811-0.59,0.908
			C19.164,9.856,19.328,9.89,19.477,10.043z M21.134,11.48h-0.837V8.034h0.837V11.48z M30.734,11.48H29.65l-1.575-2.609v2.167
			l-0.005-0.006v0.451h-0.832V11.48h-0.837l-0.296-0.738h-1.723l-0.295,0.788h-0.936c-0.395,0-0.887-0.099-1.182-0.394
			c-0.295-0.296-0.443-0.689-0.443-1.33c0-0.492,0.099-0.984,0.443-1.378c0.246-0.296,0.689-0.395,1.23-0.395h0.788v0.739h-0.788
			c-0.295,0-0.443,0.049-0.641,0.196c-0.146,0.148-0.246,0.443-0.246,0.788c0,0.394,0.05,0.64,0.246,0.837
			c0.148,0.147,0.346,0.197,0.592,0.197h0.344l1.133-2.708h0.492h0.738l1.379,3.299v-0.169v-1.111v-0.099v-1.92h1.23l1.428,2.412
			V8.084h0.838V11.48L30.734,11.48L30.734,11.48L30.734,11.48z"/>
		<path fill="#FFFFFF" d="M18.774,9.47c0.014-0.016,0.027-0.032,0.039-0.053c0.044-0.07,0.096-0.197,0.068-0.371
			c-0.001-0.016-0.004-0.03-0.007-0.045c-0.001-0.004-0.001-0.008-0.002-0.012h0c-0.024-0.084-0.087-0.136-0.149-0.167
			c-0.099-0.049-0.246-0.049-0.394-0.049h-0.984v0.787h0.984c0.148,0,0.295,0,0.394-0.049c0.015-0.008,0.028-0.018,0.041-0.029l0,0
			C18.762,9.482,18.767,9.478,18.774,9.47z"/>
		<path fill="#FFFFFF" d="M33.639,16.404c0-0.346-0.099-0.689-0.246-0.936v-2.216h-0.002v-0.147c0,0-2.064,0-2.371,0
			S30.34,13.4,30.34,13.4v-0.295h-2.265c-0.345,0-0.788,0.099-0.985,0.295v-0.295h-4.036v0.147V13.4
			c-0.296-0.246-0.837-0.295-1.083-0.295h-2.658v0.147V13.4c-0.246-0.246-0.837-0.295-1.133-0.295h-2.953l-0.689,0.738l-0.64-0.738
			H13.69h-0.335H9.466v0.147v0.389v4.437h4.333l0.712-0.713l0.617,0.713h0.05h2.496h0.113h0.049h0.049v-0.492v-0.641h0.246
			c0.345,0,0.788,0,1.132-0.148v1.231v0.099h2.216v-0.099v-1.182h0.098c0.148,0,0.148,0,0.148,0.147v1.034v0.099h6.695
			c0.443,0,0.886-0.099,1.132-0.296v0.197v0.099h2.117c0.442,0,0.886-0.049,1.182-0.246c0.453-0.272,0.739-0.754,0.781-1.328
			c0.002-0.017,0.005-0.033,0.007-0.051L33.635,16.5C33.637,16.467,33.639,16.436,33.639,16.404z M18.131,16.108h-0.985v0.147v0.295
			v0.296v0.542h-1.618l-0.942-1.084l-0.003,0.004l-0.046-0.053l-1.083,1.133h-3.151v-3.446h3.2l0.874,0.958l0.184,0.2l0.025-0.026
			l1.034-1.132h2.609c0.506,0,1.074,0.125,1.289,0.64c0.025,0.103,0.041,0.216,0.041,0.345
			C19.559,15.911,18.869,16.108,18.131,16.108z M23.054,16.059c0.099,0.148,0.147,0.346,0.147,0.641v0.689h-0.837v-0.443
			c0-0.197,0-0.541-0.147-0.689c-0.099-0.147-0.295-0.147-0.591-0.147H20.74v1.28h-0.838v-3.496h1.871c0.395,0,0.738,0,0.984,0.148
			c0.246,0.147,0.443,0.394,0.443,0.787c0,0.541-0.344,0.837-0.59,0.936C22.857,15.861,23.004,15.961,23.054,16.059z M26.451,14.631
			H24.53v0.641h1.871v0.689H24.53v0.689h1.921v0.738h-2.758v-3.496h2.758V14.631z M28.519,17.389h-1.575V16.65h1.575
			c0.147,0,0.246,0,0.345-0.1c0.049-0.049,0.098-0.146,0.098-0.246c0-0.098-0.049-0.196-0.098-0.246
			c-0.05-0.049-0.148-0.098-0.296-0.098c-0.788-0.049-1.724,0-1.724-1.083c0-0.493,0.296-1.034,1.182-1.034h1.625v0.837h-1.525
			c-0.148,0-0.247,0-0.346,0.05c-0.098,0.049-0.098,0.147-0.098,0.246c0,0.147,0.098,0.197,0.196,0.246s0.197,0.049,0.296,0.049
			h0.443c0.442,0,0.738,0.098,0.936,0.295c0.146,0.148,0.246,0.395,0.246,0.738C29.799,17.043,29.355,17.389,28.519,17.389z
			 M32.752,17.043c-0.196,0.197-0.541,0.346-1.033,0.346h-1.576V16.65h1.576c0.146,0,0.246,0,0.344-0.1
			c0.049-0.049,0.1-0.146,0.1-0.246c0-0.098-0.051-0.196-0.1-0.246c-0.049-0.049-0.146-0.098-0.295-0.098
			c-0.787-0.049-1.723,0-1.723-1.083c0-0.468,0.268-0.891,0.928-1.017c0.078-0.011,0.162-0.018,0.254-0.018h1.625v0.837h-1.084
			h-0.394h-0.05c-0.147,0-0.246,0-0.344,0.05c-0.05,0.049-0.1,0.147-0.1,0.246c0,0.147,0.05,0.197,0.197,0.246
			c0.099,0.049,0.197,0.049,0.296,0.049h0.049h0.394c0.215,0,0.379,0.026,0.527,0.078c0.137,0.05,0.588,0.252,0.688,0.779
			c0.009,0.055,0.015,0.112,0.015,0.176C33.047,16.601,32.949,16.847,32.752,17.043z"/>
	</g>
</g>
</svg>
