<?xml version="1.0" encoding="utf-8"?>
<!-- Generator: Adobe Illustrator 16.0.0, SVG Export Plug-In . SVG Version: 6.00 Build 0)  -->
<!DOCTYPE svg PUBLIC "-//W3C//DTD SVG 1.1//EN" "http://www.w3.org/Graphics/SVG/1.1/DTD/svg11.dtd">
<svg version="1.1" id="Layer_1" xmlns="http://www.w3.org/2000/svg" xmlns:xlink="http://www.w3.org/1999/xlink" x="0px" y="0px"
	 width="34.78px" height="25px" viewBox="0 0 34.78 25" enable-background="new 0 0 34.78 25" xml:space="preserve">
<g>
	<path fill="#E4E6E6" d="M2.173,0h30.434c1.201,0,2.174,0.973,2.174,2.174v20.652c0,1.199-0.973,2.174-2.174,2.174H2.173
		C0.972,25,0,24.025,0,22.826V2.174C0,0.973,0.972,0,2.173,0z"/>
	<path fill="#344E5C" d="M6.995,4.347H4.345v8.7H6.98c1.399,0,2.411-0.313,3.299-1.005c1.052-0.821,1.677-2.062,1.677-3.342
		C11.956,6.131,9.917,4.347,6.995,4.347z M8.958,10.339c-0.471,0.365-1.075,0.521-2.039,0.521H6.519V6.53h0.399
		c0.963,0,1.546,0.146,2.039,0.528c0.516,0.394,0.823,1.002,0.823,1.63C9.781,9.317,9.472,9.948,8.958,10.339z M13.044,13.045h2.158
		V4.331h-2.158V13.045z M20.105,7.7c-1.104-0.361-1.428-0.602-1.428-1.05c0-0.523,0.578-0.926,1.369-0.926
		c0.553,0,1.002,0.2,1.484,0.675l0.959-1.111c-0.791-0.613-1.736-0.926-2.768-0.926c-1.664,0-2.936,1.024-2.936,2.387
		c0,1.152,0.593,1.739,2.317,2.289c0.719,0.225,1.086,0.374,1.27,0.476c0.367,0.214,0.551,0.511,0.551,0.861
		c0,0.677-0.607,1.176-1.426,1.176c-0.875,0-1.582-0.386-2.005-1.111l-1.184,1.015c0.843,1.099,1.861,1.589,3.259,1.589
		c1.906,0,3.246-1.127,3.246-2.74C22.814,8.979,22.193,8.378,20.105,7.7z M26.094,8.684c0-1.354,1.092-2.423,2.482-2.423
		c0.703,0,1.24,0.232,1.855,0.792V4.855c-0.725-0.359-1.324-0.508-2.037-0.508c-2.506,0-4.514,1.931-4.514,4.346
		c0,2.443,1.959,4.334,4.479,4.334c0.711,0,1.322-0.135,2.072-0.483v-2.198c-0.592,0.551-1.115,0.772-1.789,0.772
		C27.152,11.118,26.094,10.111,26.094,8.684z"/>
	<path fill="#F3B45A" d="M32.607,25c1.201,0,2.174-0.975,2.174-2.174v-8.697L15.216,25H32.607L32.607,25z"/>
</g>
</svg>
