<?xml version="1.0" encoding="utf-8"?>
<!-- Generator: Adobe Illustrator 16.0.0, SVG Export Plug-In . SVG Version: 6.00 Build 0)  -->
<!DOCTYPE svg PUBLIC "-//W3C//DTD SVG 1.1//EN" "http://www.w3.org/Graphics/SVG/1.1/DTD/svg11.dtd">
<svg version="1.1" id="Layer_1" xmlns="http://www.w3.org/2000/svg" xmlns:xlink="http://www.w3.org/1999/xlink" x="0px" y="0px"
	 width="20px" height="20px" viewBox="0 0 20 20" enable-background="new 0 0 20 20" xml:space="preserve">
<g>
	<path fill="#DE3B34" d="M20,10c0,5.527-4.473,10-10,10S0,15.527,0,10S4.473,0,10,0C15.527,0,20,4.473,20,10z M18.438,10
		c0-4.664-3.774-8.438-8.438-8.438c-4.664,0-8.438,3.774-8.438,8.438c0,4.664,3.774,8.438,8.438,8.438
		C14.664,18.438,18.438,14.663,18.438,10z"/>
	<g>
		<path fill="#DE3B34" d="M13.945,13.945c-0.301,0.301-0.787,0.301-1.088,0L10,11.088l-2.993,2.993
			c-0.301,0.301-0.788,0.301-1.088,0c-0.301-0.3-0.301-0.788,0-1.088L8.912,10L6.055,7.143c-0.3-0.301-0.3-0.788,0-1.088
			c0.301-0.3,0.788-0.3,1.088,0L10,8.912l2.721-2.721c0.301-0.3,0.787-0.3,1.088,0s0.301,0.788,0,1.088L11.088,10l2.857,2.857
			C14.246,13.158,14.246,13.645,13.945,13.945z"/>
	</g>
</g>
</svg>
