<?xml version="1.0" encoding="utf-8"?>
<!-- Generator: Adobe Illustrator 25.0.0, SVG Export Plug-In . SVG Version: 6.00 Build 0)  -->
<svg version="1.1" id="Layer_1" xmlns="http://www.w3.org/2000/svg" xmlns:xlink="http://www.w3.org/1999/xlink" x="0px" y="0px"
	 viewBox="0 0 35 35" style="enable-background:new 0 0 35 35;" xml:space="preserve">
<style type="text/css">
	.st0{fill:#9E005D;}
</style>
<g>
	<g>
		<path class="st0" d="M17.5,0C7.8,0,0,7.8,0,17.5C0,27.2,7.8,35,17.5,35C27.2,35,35,27.1,35,17.5C35,7.8,27.2,0,17.5,0z M26.5,27.8
			c-2.5,2.2-5.7,3.4-9,3.4c-3.3,0-6.5-1.2-9-3.4c-0.3-0.3-0.5-0.7-0.4-1.2c0.9-4.2,3.5-7.5,7-8.6c-1.8-1.1-3-3.2-3-5.7
			c0-3.5,2.4-6.4,5.5-6.4S23,8.7,23,12.3c0,2.5-1.2,4.7-3,5.7c3.4,1.1,6.1,4.4,7,8.6C27,27.1,26.8,27.5,26.5,27.8z"/>
	</g>
</g>
</svg>
