<?xml version="1.0" encoding="utf-8"?>
<!-- Generator: Adobe Illustrator 16.0.0, SVG Export Plug-In . SVG Version: 6.00 Build 0)  -->
<!DOCTYPE svg PUBLIC "-//W3C//DTD SVG 1.1//EN" "http://www.w3.org/Graphics/SVG/1.1/DTD/svg11.dtd">
<svg version="1.1" id="Layer_1" xmlns="http://www.w3.org/2000/svg" xmlns:xlink="http://www.w3.org/1999/xlink" x="0px" y="0px"
	 width="162.967px" height="25px" viewBox="0 0 162.967 25" enable-background="new 0 0 162.967 25" xml:space="preserve">
<g>
	<path fill="#3C6FB6" d="M36.25,22.856c0,1.184-0.959,2.144-2.143,2.144H2.143C0.959,25,0,24.04,0,22.856V2.143
		C0,0.959,0.959,0,2.143,0h31.965c1.183,0,2.143,0.959,2.143,2.143V22.856L36.25,22.856z"/>
	<path opacity="0.15" fill="#202121" enable-background="new    " d="M1.523,22.856V2.143C1.523,0.959,2.483,0,3.667,0H2.143
		C0.959,0,0,0.959,0,2.143v20.714C0,24.04,0.959,25,2.143,25h1.524C2.483,25,1.523,24.04,1.523,22.856z"/>
	<g>
		<polygon fill="#FFFFFF" points="5.281,10.004 6.364,10.004 5.823,8.625 		"/>
		<polygon fill="#FFFFFF" points="11.041,14.631 11.041,15.271 12.863,15.271 12.863,15.961 11.041,15.961 11.041,16.699 
			13.06,16.699 13.995,15.665 13.109,14.631 		"/>
		<polygon fill="#FFFFFF" points="25.269,8.625 24.678,10.004 25.811,10.004 		"/>
		<polygon fill="#FFFFFF" points="16.309,17.093 16.309,14.287 15.029,15.665 		"/>
		<path fill="#FFFFFF" d="M18.721,15.074c-0.049-0.295-0.246-0.443-0.542-0.443h-1.034v0.887h1.083
			C18.524,15.518,18.721,15.369,18.721,15.074z"/>
		<path fill="#FFFFFF" d="M22.167,15.419c0.098-0.05,0.148-0.196,0.148-0.345c0.049-0.196-0.05-0.295-0.148-0.344
			c-0.098-0.05-0.246-0.05-0.394-0.05h-0.985v0.788h0.985C21.921,15.469,22.069,15.469,22.167,15.419z"/>
		<path fill="#FFFFFF" d="M29.256,7.345v0.591l-0.295-0.591h-2.314v0.591l-0.295-0.591h-3.151c-0.542,0-0.985,0.099-1.378,0.296
			V7.345h-2.215v0.05v0.246c-0.246-0.196-0.542-0.296-0.935-0.296h-7.926l-0.542,1.231L9.663,7.345H7.891H7.152v0.591L6.906,7.345
			H6.856H4.74L3.755,9.659L2.623,12.17l-0.021,0.049h0.021h2.511h0.032l0.018-0.049l0.296-0.738h0.64l0.295,0.787h2.855V12.17
			v-0.542l0.246,0.591h1.428l0.246-0.591v0.542v0.049h1.133h5.662h0.049v-1.279h0.099c0.098,0,0.098,0,0.098,0.147v1.083h3.545
			v-0.296c0.295,0.148,0.738,0.296,1.329,0.296h1.478l0.295-0.787h0.689l0.295,0.787h2.855v-0.492v-0.246l0.443,0.738h0.098h0.049
			h2.167V7.345H29.256L29.256,7.345L29.256,7.345z M12.567,11.48h-0.493H11.78v-0.295V8.773L11.73,8.886V8.885l-1.146,2.596h-0.036
			h-0.263H9.859L8.678,8.773v2.707H7.004L6.66,10.742H4.986L4.641,11.48H3.775l1.457-3.446h1.23l1.379,3.299V8.034h0.295h1.009
			l0.023,0.05H9.17l0.621,1.352l0.446,1.013l0.016-0.051l0.984-2.363h1.33V11.48L12.567,11.48L12.567,11.48z M15.964,8.773h-1.92
			v0.64h1.871v0.689h-1.871v0.689h1.92v0.738h-2.757V8.034h2.757V8.773L15.964,8.773z M19.476,10.043
			c0.001,0.001,0.002,0.001,0.004,0.003c0.019,0.02,0.034,0.039,0.048,0.058c0.094,0.124,0.171,0.308,0.174,0.577
			c0,0.005,0,0.01,0.001,0.015c0,0.002,0,0.005,0,0.007s0,0.003,0,0.005c0.001,0.027,0.002,0.055,0.002,0.085v0.688h-0.739v-0.394
			c0-0.197,0-0.492-0.147-0.689c-0.047-0.046-0.094-0.077-0.145-0.099c-0.074-0.048-0.214-0.049-0.446-0.049h-0.886v1.23h-0.837
			V8.034h1.871c0.443,0,0.738,0,0.984,0.148c0.241,0.145,0.387,0.385,0.393,0.766c-0.011,0.523-0.348,0.811-0.589,0.908
			C19.165,9.856,19.329,9.89,19.476,10.043z M21.134,11.48h-0.837V8.034h0.837V11.48z M30.734,11.48H29.65l-1.575-2.609v2.167
			l-0.005-0.006v0.451h-0.832V11.48h-0.837l-0.295-0.738h-1.723l-0.295,0.788h-0.936c-0.394,0-0.886-0.099-1.181-0.394
			c-0.295-0.296-0.443-0.689-0.443-1.33c0-0.492,0.099-0.984,0.443-1.378c0.246-0.296,0.689-0.395,1.23-0.395h0.788v0.739h-0.788
			c-0.295,0-0.443,0.049-0.64,0.196c-0.147,0.148-0.246,0.443-0.246,0.788c0,0.394,0.049,0.64,0.246,0.837
			c0.148,0.147,0.345,0.197,0.591,0.197h0.345l1.132-2.708h0.492h0.739l1.378,3.299v-0.169v-1.111v-0.099v-1.92h1.23l1.428,2.412
			V8.084h0.837V11.48L30.734,11.48L30.734,11.48L30.734,11.48z"/>
		<path fill="#FFFFFF" d="M18.774,9.47c0.014-0.016,0.027-0.032,0.039-0.053c0.044-0.07,0.096-0.197,0.068-0.371
			c-0.001-0.016-0.004-0.03-0.007-0.045c-0.001-0.004-0.001-0.008-0.002-0.012h0c-0.024-0.084-0.087-0.136-0.149-0.167
			c-0.099-0.049-0.246-0.049-0.394-0.049h-0.984v0.787h0.984c0.148,0,0.295,0,0.394-0.049c0.015-0.008,0.028-0.018,0.041-0.029l0,0
			C18.762,9.482,18.767,9.478,18.774,9.47z"/>
		<path fill="#FFFFFF" d="M33.638,16.404c0-0.346-0.098-0.689-0.246-0.936v-2.216H33.39v-0.147c0,0-2.063,0-2.371,0
			S30.34,13.4,30.34,13.4v-0.295h-2.265c-0.345,0-0.788,0.099-0.985,0.295v-0.295h-4.037v0.147V13.4
			c-0.295-0.246-0.837-0.295-1.083-0.295h-2.659v0.147V13.4c-0.246-0.246-0.837-0.295-1.133-0.295h-2.953l-0.689,0.738l-0.64-0.738
			H13.69h-0.335H9.466v0.147v0.389v4.437h4.333l0.712-0.713l0.617,0.713h0.05h2.496h0.113h0.049h0.049v-0.492v-0.641h0.246
			c0.345,0,0.788,0,1.132-0.148v1.231v0.099h2.215v-0.099v-1.182h0.098c0.148,0,0.148,0,0.148,0.147v1.034v0.099h6.695
			c0.443,0,0.886-0.099,1.132-0.296v0.197v0.099h2.117c0.443,0,0.886-0.049,1.182-0.246c0.453-0.272,0.739-0.754,0.781-1.328
			c0.002-0.017,0.005-0.033,0.006-0.051L33.635,16.5C33.637,16.467,33.638,16.436,33.638,16.404z M18.131,16.108h-0.985v0.147v0.295
			v0.296v0.542h-1.618l-0.942-1.084l-0.003,0.004l-0.046-0.053l-1.083,1.133h-3.151v-3.446h3.2l0.874,0.958l0.184,0.2l0.025-0.026
			l1.034-1.132h2.609c0.506,0,1.073,0.125,1.288,0.64c0.026,0.103,0.041,0.216,0.041,0.345
			C19.558,15.911,18.869,16.108,18.131,16.108z M23.054,16.059c0.098,0.148,0.147,0.346,0.147,0.641v0.689h-0.837v-0.443
			c0-0.197,0-0.541-0.147-0.689c-0.099-0.147-0.295-0.147-0.591-0.147H20.74v1.28h-0.837v-3.496h1.871c0.394,0,0.738,0,0.984,0.148
			c0.246,0.147,0.443,0.394,0.443,0.787c0,0.541-0.344,0.837-0.59,0.936C22.857,15.861,23.004,15.961,23.054,16.059z M26.451,14.631
			h-1.92v0.641h1.871v0.689H24.53v0.689h1.92v0.738h-2.757v-3.496h2.757V14.631z M28.519,17.389h-1.576V16.65h1.576
			c0.147,0,0.246,0,0.345-0.1c0.049-0.049,0.098-0.146,0.098-0.246c0-0.098-0.049-0.196-0.098-0.246
			c-0.05-0.049-0.148-0.098-0.296-0.098c-0.788-0.049-1.723,0-1.723-1.083c0-0.493,0.295-1.034,1.182-1.034h1.625v0.837h-1.526
			c-0.147,0-0.247,0-0.345,0.05c-0.098,0.049-0.098,0.147-0.098,0.246c0,0.147,0.098,0.197,0.196,0.246
			c0.099,0.049,0.197,0.049,0.295,0.049h0.443c0.443,0,0.738,0.098,0.936,0.295c0.147,0.148,0.246,0.395,0.246,0.738
			C29.798,17.043,29.355,17.389,28.519,17.389z M32.752,17.043c-0.197,0.197-0.542,0.346-1.034,0.346h-1.575V16.65h1.575
			c0.147,0,0.247,0,0.345-0.1c0.049-0.049,0.099-0.146,0.099-0.246c0-0.098-0.05-0.196-0.099-0.246
			c-0.049-0.049-0.147-0.098-0.295-0.098c-0.788-0.049-1.723,0-1.723-1.083c0-0.468,0.268-0.891,0.928-1.017
			c0.079-0.011,0.163-0.018,0.254-0.018h1.625v0.837h-1.083h-0.394h-0.049c-0.148,0-0.246,0-0.345,0.05
			c-0.049,0.049-0.099,0.147-0.099,0.246c0,0.147,0.049,0.197,0.197,0.246c0.098,0.049,0.197,0.049,0.295,0.049h0.049h0.394
			c0.215,0,0.378,0.026,0.527,0.078c0.136,0.05,0.587,0.252,0.688,0.779c0.009,0.055,0.015,0.112,0.015,0.176
			C33.047,16.601,32.949,16.847,32.752,17.043z"/>
	</g>
</g>
<g>
	<path fill="#2298D5" d="M78.734,23c0,1.184-0.959,2.144-2.143,2.144H44.626c-1.183,0-2.143-0.96-2.143-2.144V2.286
		c0-1.184,0.959-2.143,2.143-2.143h31.965c1.184,0,2.143,0.959,2.143,2.143V23L78.734,23z"/>
	<path opacity="0.15" fill="#202121" enable-background="new    " d="M44.007,23V2.286c0-1.184,0.959-2.143,2.143-2.143h-1.524
		c-1.183,0-2.143,0.959-2.143,2.143V23c0,1.184,0.959,2.144,2.143,2.144h1.524C44.967,25.144,44.007,24.184,44.007,23z"/>
	<path fill="#E91E25" d="M66.18,11.127c0-1.277,0.588-2.416,1.508-3.162c-0.698-0.566-1.59-0.906-2.56-0.906
		c-2.247,0-4.068,1.821-4.068,4.067c0,2.247,1.821,4.068,4.068,4.068c0.971,0,1.861-0.34,2.56-0.907
		C66.768,13.542,66.18,12.403,66.18,11.127z"/>
	<path fill="#F7A01E" d="M70.248,7.059c-0.97,0-1.86,0.34-2.56,0.907c0.921,0.745,1.509,1.885,1.509,3.161s-0.588,2.415-1.509,3.16
		c0.699,0.567,1.59,0.907,2.56,0.907c2.247,0,4.068-1.821,4.068-4.067C74.316,8.88,72.495,7.059,70.248,7.059z"/>
	<path fill="#F26122" d="M69.197,11.127c0-1.277-0.589-2.416-1.509-3.162c-0.92,0.746-1.508,1.885-1.508,3.162
		c0,1.276,0.588,2.415,1.508,3.16C68.608,13.542,69.197,12.403,69.197,11.127z"/>
	<path fill="#FFC818" d="M54.226,13.013c0,0.285-0.232,0.517-0.518,0.517h-6.42c-0.286,0-0.518-0.231-0.518-0.517V8.009
		c0-0.286,0.231-0.518,0.518-0.518h6.42c0.286,0,0.518,0.231,0.518,0.518V13.013L54.226,13.013z"/>
	<g>
		<path fill="#364A5E" d="M54.297,17.96h-7.526c-0.327,0-0.591-0.264-0.591-0.59c0-0.327,0.265-0.592,0.591-0.592h7.526
			c0.326,0,0.591,0.265,0.591,0.592C54.888,17.696,54.623,17.96,54.297,17.96z"/>
		<path fill="#364A5E" d="M54.297,20.426h-7.526c-0.327,0-0.591-0.265-0.591-0.591c0-0.327,0.265-0.592,0.591-0.592h7.526
			c0.326,0,0.591,0.265,0.591,0.592C54.888,20.161,54.623,20.426,54.297,20.426z"/>
	</g>
	<g>
		<polygon fill="#FAA51F" points="48.778,13.529 49.96,13.529 49.96,12.938 49.96,8.082 49.96,7.491 48.778,7.491 48.778,8.082 
			48.778,8.913 47.361,8.913 46.771,8.913 46.771,10.095 47.361,10.095 48.778,10.095 48.778,10.926 47.361,10.926 46.771,10.926 
			46.771,12.108 47.361,12.108 48.778,12.108 48.778,12.938 		"/>
		<path fill="#FAA51F" d="M53.635,10.095h0.591V8.913h-0.591h-1.127V8.082V7.491h-1.182v0.591v3.435
			c0,0.327,0.265,0.592,0.591,0.592h1.718h0.591v-1.183h-0.591h-1.127v-0.831H53.635z"/>
	</g>
	<path opacity="0.15" fill="#202121" enable-background="new    " d="M47.859,13.013V8.009c0-0.286,0.231-0.518,0.517-0.518h-1.088
		c-0.286,0-0.518,0.231-0.518,0.518v5.004c0,0.285,0.231,0.517,0.518,0.517h1.088C48.091,13.529,47.859,13.298,47.859,13.013z"/>
</g>
<g>
	<path fill="#FFFFFF" d="M121.218,22.856c0,1.184-0.959,2.144-2.143,2.144H87.11c-1.184,0-2.143-0.96-2.143-2.144V2.143
		C84.968,0.959,85.927,0,87.11,0h31.965c1.184,0,2.143,0.959,2.143,2.143V22.856L121.218,22.856z"/>
	<path fill="#F7A01E" d="M93.013,12.644l-0.851-4.083c-0.146-0.563-0.569-0.73-1.099-0.753h-3.902l-0.034,0.187
		C90.167,8.731,92.177,10.509,93.013,12.644z"/>
	<g>
		<polygon fill="#0A9CBF" points="102.056,7.89 99.534,7.89 97.96,17.131 100.477,17.131 		"/>
		<path fill="#0A9CBF" d="M94.55,17.122l3.966-9.226h-2.669l-2.467,6.303l-0.264-0.951c-0.482-1.146-1.865-2.793-3.488-3.83
			l2.256,7.707L94.55,17.122z"/>
		<path fill="#0A9CBF" d="M109.247,14.11c0.01-1.05-0.664-1.85-2.115-2.511c-0.883-0.427-1.42-0.711-1.414-1.145
			c0-0.383,0.455-0.794,1.441-0.794c0.826-0.013,1.422,0.168,1.887,0.354l0.227,0.104l0.342-2.002
			c-0.5-0.188-1.281-0.387-2.258-0.387c-2.488,0-4.242,1.253-4.258,3.05c-0.016,1.328,1.253,2.068,2.209,2.511
			c0.98,0.451,1.309,0.74,1.303,1.146c-0.006,0.618-0.781,0.9-1.506,0.9c-1.01,0-1.544-0.139-2.373-0.484l-0.322-0.148l-0.354,2.071
			c0.588,0.257,1.676,0.481,2.805,0.491C107.509,17.268,109.229,16.031,109.247,14.11z"/>
		<path fill="#0A9CBF" d="M112.243,15.746c0.287,0,2.859,0.004,3.227,0.004c0.074,0.321,0.307,1.385,0.307,1.385h2.336l-2.039-9.235
			h-1.945c-0.604,0-1.053,0.165-1.318,0.766l-3.742,8.47h2.646C111.714,17.135,112.146,15.996,112.243,15.746z M113.97,11.271
			c-0.012,0.025,0.209-0.534,0.336-0.882l0.17,0.797c0,0,0.48,2.207,0.582,2.67h-2.09C113.175,13.323,113.97,11.271,113.97,11.271z"
			/>
		<path fill="#0A9CBF" d="M119.075,0H87.11c-1.184,0-2.143,0.959-2.143,2.143v2.224h36.25V2.143C121.218,0.959,120.259,0,119.075,0z
			"/>
	</g>
	<path fill="#F7A01E" d="M119.075,25H87.11c-1.184,0-2.143-0.96-2.143-2.144v-2.224h36.25v2.224
		C121.218,24.04,120.259,25,119.075,25z"/>
	<path opacity="0.15" fill="#202121" enable-background="new    " d="M86.491,22.856V2.143C86.491,0.959,87.45,0,88.634,0H87.11
		c-1.184,0-2.143,0.959-2.143,2.143v20.714c0,1.184,0.959,2.144,2.143,2.144h1.523C87.45,25,86.491,24.04,86.491,22.856z"/>
</g>
<g>
	<path fill="#E4E6E6" d="M130.359,0h30.434c1.201,0,2.174,0.973,2.174,2.174v20.652c0,1.199-0.973,2.174-2.174,2.174h-30.434
		c-1.201,0-2.174-0.975-2.174-2.174V2.174C128.186,0.973,129.158,0,130.359,0z"/>
	<path fill="#344E5C" d="M135.181,4.347h-2.649v8.7h2.635c1.399,0,2.411-0.313,3.299-1.005c1.052-0.821,1.677-2.062,1.677-3.342
		C140.142,6.131,138.103,4.347,135.181,4.347z M137.144,10.339c-0.471,0.365-1.075,0.521-2.039,0.521h-0.399V6.53h0.399
		c0.963,0,1.546,0.146,2.039,0.528c0.516,0.394,0.823,1.002,0.823,1.63C137.967,9.317,137.658,9.948,137.144,10.339z M141.23,13.045
		h2.158V4.331h-2.158V13.045z M148.291,7.7c-1.104-0.361-1.428-0.602-1.428-1.05c0-0.523,0.578-0.926,1.369-0.926
		c0.553,0,1.002,0.2,1.484,0.675l0.959-1.111c-0.791-0.613-1.736-0.926-2.768-0.926c-1.664,0-2.936,1.024-2.936,2.387
		c0,1.152,0.593,1.739,2.316,2.289c0.719,0.225,1.086,0.374,1.27,0.476c0.367,0.214,0.551,0.511,0.551,0.861
		c0,0.677-0.607,1.176-1.426,1.176c-0.875,0-1.581-0.386-2.005-1.111l-1.184,1.015c0.843,1.099,1.86,1.589,3.259,1.589
		c1.906,0,3.246-1.127,3.246-2.74C151,8.979,150.379,8.378,148.291,7.7z M154.279,8.684c0-1.354,1.092-2.423,2.482-2.423
		c0.703,0,1.24,0.232,1.855,0.792V4.855c-0.725-0.359-1.324-0.508-2.037-0.508c-2.506,0-4.514,1.931-4.514,4.346
		c0,2.443,1.959,4.334,4.479,4.334c0.711,0,1.322-0.135,2.072-0.483v-2.198c-0.592,0.551-1.115,0.772-1.789,0.772
		C155.338,11.118,154.279,10.111,154.279,8.684z"/>
	<path fill="#F3B45A" d="M160.793,25c1.201,0,2.174-0.975,2.174-2.174v-8.697L143.402,25H160.793L160.793,25z"/>
</g>
</svg>
